<svg xmlns="http://www.w3.org/2000/svg" viewBox="0 0 483.84 430.59"><defs><style>.cls-1{fill:#385cad;}.cls-2{fill:#111c4e;}</style></defs><title>Isotipo Color</title><g id="Layer_2" data-name="Layer 2"><g id="Layer_1-2" data-name="Layer 1"><g id="Isotipo_Color" data-name="Isotipo Color"><path class="cls-1" d="M263.49,105a40.34,40.34,0,0,0,5.51,4.69,57,57,0,0,0,5.5,3.57,61.48,61.48,0,0,0,11,4.91,66.15,66.15,0,0,0,22,3.33,67.34,67.34,0,0,0,22-4,64,64,0,0,0,11-5.23,61.48,61.48,0,0,0,5.51-3.73,44.1,44.1,0,0,0,5.51-4.84V150.6a44.23,44.23,0,0,0-5.51-4.85,61.32,61.32,0,0,0-5.51-3.72,64,64,0,0,0-11-5.23,67.34,67.34,0,0,0-22-4,65.89,65.89,0,0,0-22,3.33,61.48,61.48,0,0,0-11,4.91,58.8,58.8,0,0,0-5.5,3.56,41.17,41.17,0,0,0-5.51,4.7Z"/><path class="cls-1" d="M65.17,17.25a136,136,0,0,0,13.71,4.57q6.87,2,13.72,3.49,13.71,3,27.42,4.83a410.62,410.62,0,0,0,54.86,3.4,414.22,414.22,0,0,0,54.85-3.67c9.14-1.25,18.29-2.88,27.43-4.95q6.85-1.56,13.71-3.54a139.17,139.17,0,0,0,13.72-4.62V61.27a139.17,139.17,0,0,0-13.72-4.62c-4.57-1.33-9.14-2.5-13.71-3.55q-13.71-3.1-27.43-4.94a414.23,414.23,0,0,0-54.85-3.68A410.63,410.63,0,0,0,120,47.89c-9.14,1.2-18.28,2.79-27.42,4.83q-6.85,1.53-13.72,3.48a138.63,138.63,0,0,0-13.71,4.58Z"/><path class="cls-1" d="M65.17,369.81a136,136,0,0,0,13.71,4.57q6.87,2,13.72,3.49,13.71,3,27.42,4.83a410.62,410.62,0,0,0,54.86,3.4,412.53,412.53,0,0,0,54.85-3.67q13.71-1.86,27.43-4.95,6.85-1.56,13.71-3.54a139.17,139.17,0,0,0,13.72-4.62v44.51a139.17,139.17,0,0,0-13.72-4.62q-6.86-2-13.71-3.54-13.71-3.1-27.43-4.95a412.53,412.53,0,0,0-54.85-3.67,410.62,410.62,0,0,0-54.86,3.4q-13.71,1.8-27.42,4.83-6.85,1.53-13.72,3.48a138.63,138.63,0,0,0-13.71,4.58Z"/><path class="cls-1" d="M263.49,281.3A40.34,40.34,0,0,0,269,286a57,57,0,0,0,5.5,3.57,61.48,61.48,0,0,0,11,4.91,66.15,66.15,0,0,0,22,3.33,67.34,67.34,0,0,0,22-4,64,64,0,0,0,11-5.23,61.48,61.48,0,0,0,5.51-3.73,43.31,43.31,0,0,0,5.51-4.84v46.89a44.23,44.23,0,0,0-5.51-4.85,61.32,61.32,0,0,0-5.51-3.72,64,64,0,0,0-11-5.23,67.34,67.34,0,0,0-22-4,65.89,65.89,0,0,0-22,3.33,61.48,61.48,0,0,0-11,4.91,58.8,58.8,0,0,0-5.5,3.56,41.17,41.17,0,0,0-5.51,4.7Z"/><path class="cls-2" d="M329.59,193.16a41,41,0,0,0,5.51,4.69,57.1,57.1,0,0,0,5.51,3.57,60.86,60.86,0,0,0,11,4.91,66.09,66.09,0,0,0,22,3.33,67.39,67.39,0,0,0,22-4,63.87,63.87,0,0,0,11-5.23,60.08,60.08,0,0,0,5.51-3.73,42,42,0,0,0,5.51-4.84v46.89a42.84,42.84,0,0,0-5.51-4.85,59.93,59.93,0,0,0-5.51-3.72,63.87,63.87,0,0,0-11-5.23,67.39,67.39,0,0,0-22-4,65.83,65.83,0,0,0-22,3.33,60.86,60.86,0,0,0-11,4.91,58.92,58.92,0,0,0-5.51,3.56,41.8,41.8,0,0,0-5.51,4.7Z"/><path class="cls-2" d="M292.17,254.31h30.77a12.36,12.36,0,0,0,10.71-6.19L349,221.48a12.42,12.42,0,0,0,0-12.37l-15.39-26.65a12.38,12.38,0,0,0-10.71-6.18H292.17a12.38,12.38,0,0,0-10.71,6.18l-15.38,26.65a12.37,12.37,0,0,0,0,12.37l15.38,26.64A12.36,12.36,0,0,0,292.17,254.31Z"/><path class="cls-1" d="M292.17,430.59h30.77a12.38,12.38,0,0,0,10.71-6.18L349,397.76a12.42,12.42,0,0,0,0-12.37l-15.39-26.65a12.38,12.38,0,0,0-10.71-6.18H292.17a12.38,12.38,0,0,0-10.71,6.18l-15.38,26.65a12.37,12.37,0,0,0,0,12.37l15.38,26.65A12.38,12.38,0,0,0,292.17,430.59Z"/><path class="cls-1" d="M292.17,78h30.77a12.36,12.36,0,0,0,10.71-6.19L349,45.2a12.42,12.42,0,0,0,0-12.37L333.65,6.18A12.38,12.38,0,0,0,322.94,0H292.17a12.38,12.38,0,0,0-10.71,6.18L266.08,32.83a12.37,12.37,0,0,0,0,12.37l15.38,26.64A12.36,12.36,0,0,0,292.17,78Z"/><path class="cls-1" d="M27.75,430.59H58.52a12.38,12.38,0,0,0,10.71-6.18l15.38-26.65a12.37,12.37,0,0,0,0-12.37L69.23,358.74a12.38,12.38,0,0,0-10.71-6.18H27.75A12.38,12.38,0,0,0,17,358.74L1.66,385.39a12.37,12.37,0,0,0,0,12.37L17,424.41A12.38,12.38,0,0,0,27.75,430.59Z"/><path class="cls-1" d="M27.75,78H58.52a12.36,12.36,0,0,0,10.71-6.19L84.61,45.2a12.37,12.37,0,0,0,0-12.37L69.23,6.18A12.38,12.38,0,0,0,58.52,0H27.75A12.38,12.38,0,0,0,17,6.18L1.66,32.83a12.37,12.37,0,0,0,0,12.37L17,71.84A12.36,12.36,0,0,0,27.75,78Z"/><path class="cls-1" d="M358.28,342.45h30.77a12.38,12.38,0,0,0,10.71-6.19l15.38-26.64a12.37,12.37,0,0,0,0-12.37L399.76,270.6a12.39,12.39,0,0,0-10.71-6.18H358.28a12.38,12.38,0,0,0-10.71,6.18l-15.39,26.65a12.37,12.37,0,0,0,0,12.37l15.39,26.64A12.36,12.36,0,0,0,358.28,342.45Z"/><path class="cls-2" d="M425.32,254.31h30.77a12.38,12.38,0,0,0,10.71-6.19l15.38-26.64a12.37,12.37,0,0,0,0-12.37L466.8,182.46a12.39,12.39,0,0,0-10.71-6.18H425.32a12.38,12.38,0,0,0-10.71,6.18l-15.39,26.65a12.37,12.37,0,0,0,0,12.37l15.39,26.64A12.36,12.36,0,0,0,425.32,254.31Z"/><path class="cls-1" d="M226.07,342.45h30.77a12.35,12.35,0,0,0,10.7-6.19l15.39-26.64a12.37,12.37,0,0,0,0-12.37L267.54,270.6a12.36,12.36,0,0,0-10.7-6.18H226.07a12.38,12.38,0,0,0-10.71,6.18L200,297.25a12.37,12.37,0,0,0,0,12.37l15.39,26.64A12.36,12.36,0,0,0,226.07,342.45Z"/><path class="cls-1" d="M358.28,166.17h30.77A12.38,12.38,0,0,0,399.76,160l15.38-26.64a12.37,12.37,0,0,0,0-12.37L399.76,94.32a12.39,12.39,0,0,0-10.71-6.18H358.28a12.38,12.38,0,0,0-10.71,6.18L332.18,121a12.37,12.37,0,0,0,0,12.37L347.57,160A12.36,12.36,0,0,0,358.28,166.17Z"/><path class="cls-1" d="M226.07,166.17h30.77a12.35,12.35,0,0,0,10.7-6.19l15.39-26.64a12.37,12.37,0,0,0,0-12.37L267.54,94.32a12.36,12.36,0,0,0-10.7-6.18H226.07a12.38,12.38,0,0,0-10.71,6.18L200,121a12.37,12.37,0,0,0,0,12.37L215.36,160A12.36,12.36,0,0,0,226.07,166.17Z"/><path class="cls-1" d="M159,254.31H189.8a12.35,12.35,0,0,0,10.7-6.19l15.39-26.64a12.37,12.37,0,0,0,0-12.37L200.5,182.46a12.36,12.36,0,0,0-10.7-6.18H159a12.38,12.38,0,0,0-10.71,6.18l-15.39,26.65a12.37,12.37,0,0,0,0,12.37l15.39,26.64A12.36,12.36,0,0,0,159,254.31Z"/></g></g></g></svg>