<?xml version="1.0" ?><!DOCTYPE svg  PUBLIC '-//W3C//DTD SVG 1.1//EN'  'http://www.w3.org/Graphics/SVG/1.1/DTD/svg11.dtd'><svg height="100%" style="fill-rule:evenodd;clip-rule:evenodd;stroke-linejoin:round;stroke-miterlimit:2;" version="1.1" viewBox="0 0 512 512" width="100%" xml:space="preserve" xmlns="http://www.w3.org/2000/svg" xmlns:serif="http://www.serif.com/" xmlns:xlink="http://www.w3.org/1999/xlink"><path d="M449.446,0c34.525,0 62.554,28.03 62.554,62.554l0,386.892c0,34.524 -28.03,62.554 -62.554,62.554l-386.892,0c-34.524,0 -62.554,-28.03 -62.554,-62.554l0,-386.892c0,-34.524 28.029,-62.554 62.554,-62.554l386.892,0Zm-193.446,75.784c-104.225,0 -185,76.346 -185,179.455c0,53.937 22.111,100.54 58.106,132.739c3.014,2.716 4.839,6.476 4.988,10.533l1.005,32.906c0.335,10.497 11.166,17.309 20.771,13.102l36.701,-16.191c3.127,-1.377 6.589,-1.638 9.865,-0.745c16.861,4.652 34.841,7.11 53.564,7.11c104.225,0 185,-76.346 185,-179.454c0,-103.074 -80.721,-179.403 -185,-179.455Zm-111.074,231.94l54.345,-86.21c8.636,-13.697 27.174,-17.122 40.127,-7.407l43.216,32.421c3.983,2.979 9.418,2.942 13.364,-0.036l58.366,-44.297c7.779,-5.917 17.979,3.425 12.73,11.689l-54.309,86.172c-8.636,13.698 -27.172,17.122 -40.126,7.407l-43.216,-32.421c-3.984,-2.979 -9.418,-2.941 -13.363,0.037l-58.404,44.333c-7.753,5.898 -17.911,-3.362 -12.73,-11.688Z"/></svg>