<?xml version="1.0" ?><!DOCTYPE svg  PUBLIC '-//W3C//DTD SVG 1.1//EN'  'http://www.w3.org/Graphics/SVG/1.1/DTD/svg11.dtd'><svg height="100%" style="fill-rule:evenodd;clip-rule:evenodd;stroke-linejoin:round;stroke-miterlimit:2;" version="1.1" viewBox="0 0 512 512" width="100%" xml:space="preserve" xmlns="http://www.w3.org/2000/svg" xmlns:serif="http://www.serif.com/" xmlns:xlink="http://www.w3.org/1999/xlink"><path d="M449.446,0c34.525,0 62.554,28.03 62.554,62.554l0,386.892c0,34.524 -28.03,62.554 -62.554,62.554l-386.892,0c-34.524,0 -62.554,-28.03 -62.554,-62.554l0,-386.892c0,-34.524 28.029,-62.554 62.554,-62.554l386.892,0Zm-58.673,127.703c-33.842,-33.881 -78.847,-52.548 -126.798,-52.568c-98.799,0 -179.21,80.405 -179.249,179.234c-0.013,31.593 8.241,62.428 23.927,89.612l-25.429,92.884l95.021,-24.925c26.181,14.28 55.659,21.807 85.658,21.816l0.074,0c98.789,0 179.206,-80.413 179.247,-179.243c0.018,-47.895 -18.61,-92.93 -52.451,-126.81Zm-126.797,275.782l-0.06,0c-26.734,-0.01 -52.954,-7.193 -75.828,-20.767l-5.441,-3.229l-56.386,14.792l15.05,-54.977l-3.542,-5.637c-14.913,-23.72 -22.791,-51.136 -22.779,-79.287c0.033,-82.142 66.867,-148.971 149.046,-148.971c39.793,0.014 77.199,15.531 105.329,43.692c28.128,28.16 43.609,65.592 43.594,105.4c-0.034,82.149 -66.866,148.983 -148.983,148.984Zm81.721,-111.581c-4.479,-2.242 -26.499,-13.075 -30.604,-14.571c-4.105,-1.495 -7.091,-2.241 -10.077,2.241c-2.986,4.483 -11.569,14.572 -14.182,17.562c-2.612,2.988 -5.225,3.364 -9.703,1.12c-4.479,-2.241 -18.91,-6.97 -36.017,-22.23c-13.314,-11.876 -22.304,-26.542 -24.916,-31.026c-2.612,-4.484 -0.279,-6.908 1.963,-9.14c2.016,-2.007 4.48,-5.232 6.719,-7.847c2.24,-2.615 2.986,-4.484 4.479,-7.472c1.493,-2.99 0.747,-5.604 -0.374,-7.846c-1.119,-2.241 -10.077,-24.288 -13.809,-33.256c-3.635,-8.733 -7.327,-7.55 -10.077,-7.688c-2.609,-0.13 -5.598,-0.158 -8.583,-0.158c-2.986,0 -7.839,1.121 -11.944,5.604c-4.105,4.484 -15.675,15.32 -15.675,37.364c0,22.046 16.048,43.342 18.287,46.332c2.24,2.99 31.582,48.227 76.511,67.627c10.685,4.615 19.028,7.371 25.533,9.434c10.728,3.41 20.492,2.929 28.209,1.775c8.605,-1.285 26.499,-10.833 30.231,-21.295c3.732,-10.464 3.732,-19.431 2.612,-21.298c-1.119,-1.869 -4.105,-2.99 -8.583,-5.232Z"/></svg>